<svg xmlns="http://www.w3.org/2000/svg" width="230.154" height="204.581" viewBox="0 0 230.154 204.581">
  <g id="Asset_1" data-name="Asset 1" transform="translate(-0.003 -0.002)">
    <path id="Path_10384" data-name="Path 10384" d="M59.35,201.11c-4.87-1-63.43-10.42-59.12-79.6s9.72-90,32.49-97.6,78.11-43.62,121.55-9.38,90.3,65,71.7,119.65-21.65,72.92-70.17,70.13S82.53,206.07,59.35,201.11Z" fill="#f2f2f2"/>
    <path id="Path_10385" data-name="Path 10385" d="M38,38.38h63c.31-6-2.69-12.08-8-14.89A16.29,16.29,0,0,0,75.8,25c-4.29-3.7-8.75-7.49-14.16-9.16s-12.09-.63-15.43,3.94A12.91,12.91,0,0,0,44.72,31q-7.36-.06-14.7.34c-2.8.15-6.6,1-6.74,3.76C23.07,39.26,38,38.38,38,38.38Z" fill="#fff"/>
    <path id="Path_10386" data-name="Path 10386" d="M172.31,37a5.41,5.41,0,0,0-3.77-.43c-.77.17-1.51.45-2.27.68-1.44.45-1.56.82-2.15-.43s.14-2.77-1.11-4.2A4.8,4.8,0,0,0,159.42,31a4.63,4.63,0,0,0-1.43.21,17.74,17.74,0,0,0-3.85-6.1,13,13,0,0,0-13.76-3,14.69,14.69,0,0,0-5.43,4,17.909,17.909,0,0,0-2,2.92,28.232,28.232,0,0,1-1.39,3c-1.38-.52-2.66-1.21-4.11-1.61-2.82-.78-5.9-.93-8.38.91a6.69,6.69,0,0,0-2.66,6.76c.38,1.43,1.05,2.49,2.5,2.51H175.9a11,11,0,0,0-3.59-3.6Z" fill="#fff"/>
    <path id="Path_10387" data-name="Path 10387" d="M199.13,56.63a11.17,11.17,0,0,0-3.21-9.89,11.8,11.8,0,0,0-12.46-2.68,13.26,13.26,0,0,0-4.91,3.64,15.858,15.858,0,0,0-1.83,2.63,26,26,0,0,1-1.26,2.73c-1.25-.47-2.41-1.09-3.72-1.45-2.56-.71-5.34-.85-7.58.82a6,6,0,0,0-2.38,6.22c.23.81.83,2.15,1.75,2.23a7.3,7.3,0,0,0,.81,0h32.24c.54,0,.61-.1.94-.54a9.06,9.06,0,0,0,1.61-3.71Z" fill="#fff"/>
    <path id="Path_10388" data-name="Path 10388" d="M10.22,61.76a11.19,11.19,0,0,1,3.21-9.89A11.82,11.82,0,0,1,25.89,49.2a13.42,13.42,0,0,1,4.91,3.63,15.94,15.94,0,0,1,1.83,2.64,26,26,0,0,0,1.26,2.73c1.25-.47,2.41-1.1,3.71-1.46,2.56-.7,5.35-.84,7.59.82a6,6,0,0,1,2.38,6.22c-.23.82-.83,2.16-1.75,2.24H12.77c-.54,0-.61-.1-.94-.55a9,9,0,0,1-1.61-3.71Z" fill="#fff"/>
    <path id="Path_10389" data-name="Path 10389" d="M47.24,184.15c-1.17.87-2.23,1.92-2.15,3.58.18,3.54,6.26,4.39,8.74,4.73,4.4.6,8.82.51,13.25.68q24.11.92,48.25.34,12.39-.27,24.76-.9c7.25-.36,15.32.1,22.19-2.7a95.941,95.941,0,0,0,11.94-6c3.2-1.86,7.35-3.63,9.24-7.1,3.32-6.1-8.32-7.3-11.52-8-12.6-2.63-25.6-3.1-38.41-3.49a288.5,288.5,0,0,0-39.11,1.22c-16.28,1.72-33.69,7.23-47,17.49Z" fill="#e5e5e5"/>
    <rect id="Rectangle_624" data-name="Rectangle 624" width="93.29" height="63.95" transform="translate(80.82 114.02)" fill="#f2f2f2"/>
    <path id="Path_10390" data-name="Path 10390" d="M174.11,114H80.82L93.17,99.74a3,3,0,0,1,2.28-1h90.2a.79.79,0,0,1,.59,1.3Z" fill="#fff"/>
    <path id="Path_10391" data-name="Path 10391" d="M174.16,113.61H82.29a4.43,4.43,0,0,0-1.26,0,.43.43,0,0,1-.16,0l.41.58,9.1-10.53c1.08-1.24,2.1-2.56,3.24-3.75a3.32,3.32,0,0,1,2.78-.8h86.38a17.25,17.25,0,0,1,2.49,0c1.14.17.09,1.21-.35,1.71l-10.41,12-.86,1c-.45.52.59.72.92.33l9.37-10.83,2.16-2.5c.36-.42.91-.89.88-1.48-.06-1.15-1.22-1.08-2-1.08H95.59c-1.68.06-2.64,1-3.65,2.17L81.29,112.77l-.93,1.08c-.29.33.1.57.42.57h89.48c1.2,0,2.45.1,3.64,0h.17C174.7,114.43,174.91,113.61,174.16,113.61Z" fill="#9f6b53"/>
    <path id="Path_10392" data-name="Path 10392" d="M81,114l-23,8.94v63.95l23-8.59Z" fill="#f7f7f7"/>
    <path id="Path_10393" data-name="Path 10393" d="M80.77,113.88l-20.06,7.8-2.86,1.12c-.73.28-.05.46.39.29l20.06-7.81,2.86-1.11C81.88,113.88,81.2,113.7,80.77,113.88Z" fill="#9f6b53"/>
    <path id="Path_10394" data-name="Path 10394" d="M81.51,178.15V116.92c0-.3-1.1-.1-1.1.29v61.24C80.41,178.75,81.51,178.55,81.51,178.15Z" fill="#9f6b53"/>
    <path id="Path_10395" data-name="Path 10395" d="M81,114l-23,8.94-11-10.7a2,2,0,0,1,0-2.83,1.79,1.79,0,0,1,.73-.48l18.78-7a2,2,0,0,1,2.09.42Z" fill="#f2f2f2"/>
    <path id="Path_10396" data-name="Path 10396" d="M80.37,114.25,58,122.94l-9.33-9.26a2,2,0,0,1,.69-3.31L55.9,108c3.18-1.18,7-3.6,10.52-2.85C68.93,105.65,80.11,114,80.37,114.25Z" fill="#fff"/>
    <path id="Path_10397" data-name="Path 10397" d="M80.73,113.73l-20.06,7.82-2.86,1.11h.74l-8.42-8.2-2-1.91a3.37,3.37,0,0,1-1.1-1.45c-.5-1.87,2-2.33,3.21-2.8l13.36-5c1-.39,2.95-1.57,4.07-1.06a4.73,4.73,0,0,1,1.17,1l1.92,1.82,9.66,9.17c.33.31,1.37-.13,1-.46l-9.09-8.63c-1.07-1-2.11-2.12-3.24-3.08-1.4-1.18-2.86-.46-4.32.08l-14.08,5.28a22.541,22.541,0,0,0-3.6,1.4,2.32,2.32,0,0,0-.92,3.16,2.35,2.35,0,0,0,.24.37c.3.36.67.66,1,1l10.08,9.81a.71.71,0,0,0,.74.06l20.06-7.81,2.86-1.12C81.9,114,81.27,113.53,80.73,113.73Z" fill="#9f6b53"/>
    <rect id="Rectangle_625" data-name="Rectangle 625" width="93.58" height="63.95" transform="translate(57.61 122.94)" fill="#f2f2f2"/>
    <path id="Path_10398" data-name="Path 10398" d="M151.2,124.27c-3,4.47-6.46,10.49-8.61,14.33a7.38,7.38,0,0,1-6.42,3.78l-78.55.17v44.34H151.2Z" fill="#fff"/>
    <path id="Path_10399" data-name="Path 10399" d="M174.12,114l-22.92,8.92v63.95l22.92-8.59Z" fill="#e5e5e5"/>
    <path id="Path_10400" data-name="Path 10400" d="M174.12,135.22l-7.61,3.06a6.25,6.25,0,0,1-7.31-2l-8-10.65v61.3l22.92-8.59Z" fill="#f2f2f2"/>
    <path id="Path_10401" data-name="Path 10401" d="M150.65,125.82v58.83c0,.24,1.1.06,1.1-.29V125.53C151.75,125.29,150.65,125.47,150.65,125.82Z" fill="#9f6b53"/>
    <path id="Path_10402" data-name="Path 10402" d="M57.39,123.21h89.06c1.47,0,3,.15,4.5,0a10,10,0,0,0,2.43-.86l6.66-2.59,13.42-5.22.86-.34c.72-.28.05-.53-.41-.35l-10.3,4c-4.09,1.59-8.31,3-12.32,4.8-.54.24.05,0,.07,0a1.68,1.68,0,0,0-.5,0H75.42c-5.77,0-11.56-.17-17.32,0h-.27c-.35,0-1.18.54-.45.54Z" fill="#9f6b53"/>
    <path id="Path_10403" data-name="Path 10403" d="M173.55,133.94v44.4c.1-.13.21-.25.32-.37l-10.4,3.9c-4.08,1.53-8.26,2.9-12.27,4.6-.47.2.12,0,0,0H59.91a13.222,13.222,0,0,0-2,0,1.129,1.129,0,0,1-.26,0l.51.37V140.13c0-.58-1.12-.42-1.12.08v46.72c0,.29.27.37.51.37h89a35.151,35.151,0,0,0,4.59,0,11.59,11.59,0,0,0,2.27-.81L160,184l13.48-5,.87-.33a.49.49,0,0,0,.31-.37V133.9c0-.58-1.1-.42-1.1.08Z" fill="#9f6b53"/>
    <path id="Path_10404" data-name="Path 10404" d="M151.2,122.94H57.61L45.28,137.21a.64.64,0,0,0,.06.9.66.66,0,0,0,.42.15h91.9a.64.64,0,0,0,.48-.22Z" fill="#f2f2f2"/>
    <path id="Path_10405" data-name="Path 10405" d="M151.2,122.94H58.54c-1.43,2.76-2.8,5.55-4.3,8.26-.93,1.67-1.1,4.39,1.6,4.39H135.3a5.92,5.92,0,0,0,4.07-1.61Z" fill="#fff"/>
    <path id="Path_10406" data-name="Path 10406" d="M151.4,122.59h-93a1.82,1.82,0,0,0-1.27.24,7.609,7.609,0,0,0-.91,1.06c-.64.74-1.29,1.48-1.93,2.23l-9.17,10.6c-.65.75-.81,1.81.51,1.9H137.4c1.08-.07,1.57-.92,2.22-1.67l9.62-11.13,2.39-2.76c.44-.5-.62-.58-.9-.25l-9.14,10.56c-1.28,1.48-2.51,3-3.85,4.45-.17.19.27,0-.1.08a5.34,5.34,0,0,1-.8,0h-88a18.1,18.1,0,0,1-2.55,0H45.9c-.71-.41.37-1.27.61-1.55l10.56-12.21.93-1.07-.65.23h82c3.78,0,7.63.21,11.4,0H151C151.47,123.3,152.14,122.59,151.4,122.59Z" fill="#9f6b53"/>
    <path id="Path_10407" data-name="Path 10407" d="M174.12,114l-22.92,8.92L164,135.3a1,1,0,0,0,1,.22l20.86-7.82a1,1,0,0,0,.59-1.28.91.91,0,0,0-.24-.37Z" fill="#f2f2f2"/>
    <path id="Path_10408" data-name="Path 10408" d="M173.37,114.31l-21.89,8.74L163,134.68a.86.86,0,0,0,.94.2l8.64-3.39,5.22-2c1.71-.67,4.1-1.48,3.89-3.79a4.74,4.74,0,0,0-1.5-2.63C179.4,122.21,173.75,114.71,173.37,114.31Z" fill="#fff"/>
    <path id="Path_10409" data-name="Path 10409" d="M173.87,113.68l-20.06,7.8L151,122.6a.4.4,0,0,0-.28.49.42.42,0,0,0,.11.18l9.45,9.13a40.718,40.718,0,0,0,3.34,3.23c1.12.85,2.84-.18,4-.61l15-5.62a35,35,0,0,0,3.63-1.35c2.18-1.1.06-2.79-.91-3.75l-10.62-10.53c-.37-.36-1.41.1-1,.5l8.8,8.72,2.33,2.32a6.621,6.621,0,0,1,1,1c.8,1.3-2.06,1.81-2.85,2.1l-14.39,5.4-2.55,1a3.921,3.921,0,0,1-1.14.42c-.37,0-.8-.58-1-.81l-2-1.93-10.15-9.81-.18.67,20.06-7.81,2.86-1.11C175.06,114.09,174.45,113.45,173.87,113.68Z" fill="#9f6b53"/>
    <path id="Path_10410" data-name="Path 10410" d="M144,139.76v10.86c0,.6,1.11.45,1.11-.07V139.69c0-.6-1.11-.45-1.11.07Z" fill="#9f6b53"/>
    <path id="Path_10411" data-name="Path 10411" d="M144,153v1.71c0,.46,1.1.23,1.1-.14v-1.71C145.13,152.35,144,152.58,144,153Z" fill="#9f6b53"/>
    <path id="Path_10412" data-name="Path 10412" d="M144,156.64v4.46c0,.56,1.11.39,1.11-.09v-4.46C145.13,156,144,156.16,144,156.64Z" fill="#9f6b53"/>
    <path id="Path_10413" data-name="Path 10413" d="M156.19,173.18l9.92-3.2c.66-.21.47-.95-.2-.73l-9.92,3.2C155.33,172.66,155.52,173.4,156.19,173.18Z" fill="#d1d1d1"/>
    <path id="Path_10414" data-name="Path 10414" d="M156.17,169.25,166,166c.65-.21.51-.8-.15-.59L156,168.67C155.37,168.88,155.51,169.47,156.17,169.25Z" fill="#d1d1d1"/>
    <path id="Path_10415" data-name="Path 10415" d="M156.16,165.43l9.83-3.26c.63-.2.51-.72-.14-.51L156,164.92c-.64.21-.52.73.14.51Z" fill="#d1d1d1"/>
    <path id="Path_10416" data-name="Path 10416" d="M156.2,176.16l2.19-.7c.23-.07.52-.27.45-.55s-.44-.33-.66-.26l-2.19.7c-.23.08-.52.28-.44.56S156,176.23,156.2,176.16Z" fill="#d1d1d1"/>
    <path id="Path_10417" data-name="Path 10417" d="M160,174.77l2.21-.7c.14,0,.54-.18.48-.4s-.48-.14-.61-.1l-2.21.71c-.15,0-.55.17-.49.39S159.87,174.81,160,174.77Z" fill="#d1d1d1"/>
    <path id="Path_10418" data-name="Path 10418" d="M163.9,173.59l2.23-.71c.17-.06.53-.2.47-.45s-.47-.21-.63-.16l-2.23.72c-.18,0-.54.2-.47.44S163.73,173.64,163.9,173.59Z" fill="#d1d1d1"/>
    <path id="Path_10419" data-name="Path 10419" d="M92.22,170.74a17.55,17.55,0,0,1,12.15-5.57A18.85,18.85,0,0,1,114,167.4a17,17,0,0,1,3.4,2.38c.36.36,1.4-.1,1-.5a18.35,18.35,0,0,0-8.86-4.51,19.56,19.56,0,0,0-15.42,3.14,15.29,15.29,0,0,0-2.85,2.48c-.45.53.59.74.93.35Z" fill="#9f6b53"/>
    <path id="Path_10420" data-name="Path 10420" d="M96,156.81a1.78,1.78,0,0,1-1.13,2.12A1.55,1.55,0,0,1,93,157.78a.431.431,0,0,1,0-.11,1.76,1.76,0,0,1,1.13-2.12A1.55,1.55,0,0,1,96,156.7Z" fill="#9f6b53"/>
    <ellipse id="Ellipse_19" data-name="Ellipse 19" cx="1.56" cy="1.75" rx="1.56" ry="1.75" transform="translate(114.56 156.08)" fill="#9f6b53"/>
    <path id="Path_10421" data-name="Path 10421" d="M126.11,116.73c-5,.61-10.46,1.27-15.25-.82-4-1.74-7.29-5.4-7-10,.27-4.75,3.73-8.46,7.91-10.32a24.68,24.68,0,0,1,14.85-1.26c2.34.49,5.17,1.18,7.12,2.63,1.63,1.22,2.28,3.39.7,4.92a10,10,0,0,1-4.4,2,49.331,49.331,0,0,1-4.81,1.12c-8.25,1.44-17.62.08-24.09-5.6a15.43,15.43,0,0,1-5.46-11.3c0-4.42,2.49-8.45,5.84-11.18,6.72-5.47,16.07-7,24.49-7.06a76,76,0,0,1,12.42,1,23.43,23.43,0,0,1,6.5,1.64c2.05,1,4.12,3,3.57,5.48s-3.21,3.09-5.22,3.67a32.911,32.911,0,0,1-8,1.22,91.089,91.089,0,0,1-15.22-.78A81.179,81.179,0,0,1,106,79.3a30.49,30.49,0,0,1-9.41-4.46,15.32,15.32,0,0,1-5.73-8.1,18.37,18.37,0,0,1,.65-11.37c2.76-7.07,9.7-11.44,16.55-13.91a74.19,74.19,0,0,1,29.41-3.92,77.469,77.469,0,0,1,15,2.46,63.23,63.23,0,0,1,7.36,2.4c2,.8,4,1.72,5,3.75,2,3.9-1.92,7.6-5,9.36a48.11,48.11,0,0,1-11.16,4.06,76.24,76.24,0,0,1-15.4,2.12c-4.95.26-9.9.43-14.85.35-9.54-.15-19.31-1.36-27.93-5.67C83,52.63,75.61,45,77.48,35.87c.89-4.3,4.1-8,7.41-10.75A38.9,38.9,0,0,1,96.5,18.8c8.58-3.09,17.82-4.16,26.87-4.7a129.06,129.06,0,0,1,45.11,5.13c.31.09,1.3-.38.89-.51a133.47,133.47,0,0,0-63.75-3c-9,1.86-18.4,5.19-24.71,12.17-3.1,3.43-5.2,7.62-4.7,12.34A19.11,19.11,0,0,0,82.4,52c7.36,6.86,18.17,9.36,27.91,10.22a133,133,0,0,0,15.72.3,137.537,137.537,0,0,0,16.73-1.22,70.409,70.409,0,0,0,13.6-3.65c3.54-1.32,7.29-3.21,9.24-6.61a5.33,5.33,0,0,0,.21-5.46c-1.08-1.92-3-2.82-4.93-3.62a71.61,71.61,0,0,0-15.56-4.2,78.72,78.72,0,0,0-32.4,1.67c-7.7,2-15.85,5.49-20.5,12.31-4.34,6.38-4.6,15.69.89,21.49A24.68,24.68,0,0,0,102.84,79a71.17,71.17,0,0,0,13.51,3.27,101.872,101.872,0,0,0,16.82,1.27,41.341,41.341,0,0,0,7.77-.76,20.22,20.22,0,0,0,6.62-2.26,4.06,4.06,0,0,0,2-4.45C149,74,147,72.55,145.1,71.77a30.13,30.13,0,0,0-6.69-1.5c-2.21-.34-4.43-.58-6.67-.74-8.9-.62-18.32.19-26.38,4.29-3.92,2-7.51,4.83-9.47,8.86a13.69,13.69,0,0,0,.68,12.94c4.58,7.9,14.68,10.82,23.29,10.54,3.07-.1,20.19-1.85,16-8.37-1.26-2-4-2.74-6.15-3.37a30,30,0,0,0-7.24-1.2,23.94,23.94,0,0,0-13.74,3.36c-3.67,2.38-6.42,6.44-6,11s4.15,7.78,8.18,9.23c4.81,1.73,10.07,1.1,15,.5.51,0,.92-.64.16-.54Z" fill="#9f6b53"/>
  </g>
</svg>
